<?xml version="1.0" encoding="utf-8"?>
<!-- Generator: Adobe Illustrator 19.0.0, SVG Export Plug-In . SVG Version: 6.00 Build 0)  -->
<svg version="1.1" id="Слой_1" xmlns="http://www.w3.org/2000/svg" xmlns:xlink="http://www.w3.org/1999/xlink" x="0px" y="0px"
	 viewBox="-255 334 100 125" style="enable-background:new -255 334 100 125;" xml:space="preserve">
<title>06</title>
<path d="M-249,389.2C-249,389.2-249,389.2-249,389.2c0,0.1,0,0.1,0,0.1c0,0.1,0,0.2,0.1,0.3c0,0,0,0,0,0.1c0,0.1,0.1,0.2,0.2,0.3
	l42.9,47l0,0l0.1,0.1l0.1,0.1l0.1,0.1l0.2,0.1h0.1c0.1,0,0.2,0,0.3,0l0,0c0.1,0,0.2,0,0.3-0.1l0,0c0.2-0.1,0.4-0.2,0.5-0.4l43-46.9
	c0.1-0.1,0.1-0.2,0.2-0.3c0,0,0,0,0-0.1c0-0.1,0.1-0.2,0.1-0.3c0,0,0,0,0,0c0-0.1,0,0,0-0.1c0-0.1,0-0.2-0.1-0.4l0,0l-14.2-27.8
	c-0.2-0.3-0.5-0.5-0.9-0.5h-57.6c-0.1,0-0.2,0-0.3,0.1l0,0l0,0c-0.1,0-0.2,0.1-0.2,0.2h-0.1c-0.1,0.1-0.1,0.2-0.2,0.3l-14.2,27.8
	l0,0C-248.9,389-248.9,389.1-249,389.2L-249,389.2z M-234,364l9.4,24.3h-21.7L-234,364z M-163.6,388.3h-21.6l9.3-24.1L-163.6,388.3z
	 M-188.2,390.3l-16.8,43.3l-16.7-43.3H-188.2z M-221.1,388.3l16.1-24.4l16.1,24.4H-221.1z M-186.1,390.3h21.8l-37.9,41.5
	L-186.1,390.3z M-187.1,387.4l-16.4-24.8h26L-187.1,387.4z M-222.8,387.3l-9.5-24.7h25.8L-222.8,387.3z M-223.8,390.3l16,41.5
	l-37.9-41.5L-223.8,390.3z"/>
</svg>
