<?xml version="1.0" encoding="utf-8"?>
<!-- Generator: Adobe Illustrator 19.0.0, SVG Export Plug-In . SVG Version: 6.00 Build 0)  -->
<svg version="1.1" id="Слой_1" xmlns="http://www.w3.org/2000/svg" xmlns:xlink="http://www.w3.org/1999/xlink" x="0px" y="0px"
	 viewBox="-255 334 100 125" style="enable-background:new -255 334 100 125;" xml:space="preserve">
<path d="M-165.4,369.8c0-0.1-0.1-0.3-0.3-0.3l-35.7-14.6c-0.1-0.1-0.3,0-0.4,0l0,0l-48.5,20.5l0,0c-0.1,0-0.2,0.1-0.2,0.2
	c-0.1,0.1-0.1,0.3,0,0.4l16.2,40.9l10.1,26c0.1,0.2,0.3,0.3,0.5,0.3c0,0,0.1,0,0.1,0l36.9-11c0.1,0,0.2-0.1,0.3-0.2l26.8-39.8
	c0.1-0.1,0.1-0.3,0.1-0.4L-165.4,369.8z M-193.9,418.3l-4.1-7.2l5.3-6.7l2.1,11.2L-193.9,418.3z M-190.2,416.6l2.3,12.1l-5.5-9.7
	L-190.2,416.6z M-222.9,400.5l-0.3,8.3l-9.3,6.4l8.3-15.8L-222.9,400.5z M-223.7,398.5l0.9-1.7l-0.1,2.4L-223.7,398.5z
	 M-221.9,401.3l4.2,3.7l-4.4,3L-221.9,401.3z M-221.9,400l0.2-5.3l6.4-12.2l0,0l4.4,7.7l-3.1,12.3l-2.9,2L-221.9,400z M-177.4,377.2
	l-7.8,5.4l-11.3-3.9l-1.2-6.1l14-1L-177.4,377.2z M-182.3,371.6l14.7-1l-8.9,6.1L-182.3,371.6z M-209.8,390.1l1.6-6.3l12.1,2.2
	l0.7,3.7l-10.5,7.3L-209.8,390.1z M-206.8,397.5l-6,4.1l2.6-10.1L-206.8,397.5z M-221,372.4l0.5,0.8l-0.5,0L-221,372.4z
	 M-220.3,371.5l4.1,1.4l-3.2,0.2L-220.3,371.5z M-213.8,373.8l1.7,0.6l-3.2,6.1l-3.6-6.3L-213.8,373.8z M-210.5,373.5l4-0.3
	l-0.5,1.8l-3.6-1.3L-210.5,373.5z M-214.7,381.5l3.6-6.8l3.9,1.3l-1.7,6.6l-5.6-1L-214.7,381.5z M-206.3,376.4l9,3.1l1,5.4
	l-11.6-2.1L-206.3,376.4z M-209.2,383.6l-1.3,5.2l-3.4-6.1L-209.2,383.6z M-195.2,390.7l2.2,11.7l-8.3,2.8l-4.2-7.4L-195.2,390.7z
	 M-194.3,390.1l4.4-3.1l8.5,1.5L-192,402L-194.3,390.1z M-194.5,389l-0.6-2.9l3.8,0.7L-194.5,389z M-195.3,385.1l-1-5.2l10.1,3.5
	l-3.9,2.7L-195.3,385.1z M-197.6,378.3l-8.5-2.9l0.6-2.2l6.9-0.5L-197.6,378.3z M-205.3,372.2l0.3-1.3l5.9-0.1l0.2,0.9L-205.3,372.2
	z M-204.7,369.9l3.1-12.3l2.3,12.2L-204.7,369.9z M-205.7,369.9l-2.9,0l5.6-10.7L-205.7,369.9z M-206,370.9l-0.3,1.3l-3.7,0.3
	l0.8-1.6L-206,370.9z M-211.2,372.6l-2.5,0.2l-4.9-1.7l8.2-0.1L-211.2,372.6z M-222.1,374.9l-0.2,5.4l-1.2-0.2L-222.1,374.9z
	 M-224.4,379.9l-21.5-3.8l23-1.6L-224.4,379.9z M-221,374.3l1.1-0.1l4.1,7.2l-5.3-1L-221,374.3z M-216.3,382.3l-5.3,10.1l0.4-11
	L-216.3,382.3z M-214.4,403.9l-0.6,2.2l-1.2-1L-214.4,403.9z M-213.1,403.1l6.9-4.7l4.1,7.2l-9.7,3.3l-2.2-1.9L-213.1,403.1z
	 M-213,409.2l-1.8,0.6l0.5-1.8L-213,409.2z M-212.2,410l8.1,7.2l-18.6,23.4l7.5-29.6L-212.2,410z M-211.1,409.6l9.4-3.1l2.6,4.5
	l-4.3,5.4L-211.1,409.6z M-200.7,406.1l7.5-2.5l-5.2,6.5L-200.7,406.1z M-180.2,388.8l7,1.3l-2.2,6.5l-15,5L-180.2,388.8z
	 M-172.2,390.2l10.2,1.8l-12.2,4.1L-172.2,390.2z M-171.9,389.3l0.3-0.9l5.4,1.9L-171.9,389.3z M-172.9,389.1l-6.6-1.2l1.4-1.8
	l5.6,1.9L-172.9,389.1z M-180.6,387.7l-8.1-1.4l3.7-2.5l5.9,2.1L-180.6,387.7z M-184,383l7.4-5.1l2.2,1.9l-4.1,5.1L-184,383z
	 M-175.8,377.3l7.4-5.1l-5.5,6.9L-175.8,377.3z M-183.4,370.6L-183.4,370.6l0.1,0L-183.4,370.6z M-184.8,370.7l-13.1,0.9l-0.2-0.8
	L-184.8,370.7L-184.8,370.7z M-198.2,369.8l-2.5-13.2l14.8,13L-198.2,369.8z M-209.8,370l-10.1,0.1l16.9-13L-209.8,370z
	 M-222.7,373.4l-18.3,1.3l18.9-3.4L-222.7,373.4z M-224.7,380.8l-3.6,13.5l-20-17.7L-224.7,380.8z M-223.7,381l1.4,0.3l-0.4,13.2
	l-1.7,3.3l-3.1-2.7L-223.7,381z M-224.9,398.7l-7.3,13.8l4.4-16.4L-224.9,398.7z M-223.2,410l-0.1,2.6l-7.3,2.5L-223.2,410z
	 M-222.2,409.3l5.2-3.6l1.7,1.5l-0.8,2.9l-6.3,2.1L-222.2,409.3z M-216.3,411.3l-6.8,26.8l0.8-24.8L-216.3,411.3z M-203.3,417.8
	l4.7,4.2l-22,17.6L-203.3,417.8z M-202.7,417l4.1-5.1l3.9,7l-3.1,2.5L-202.7,417z M-194.2,419.8l5.4,9.6l-8.2-7.3L-194.2,419.8z
	 M-189.4,415.9l10.1-8l-7.4,21.8L-189.4,415.9z M-189.6,414.8l-2.2-11.5l0.2-0.3l15.7-5.3l-2.9,8.4L-189.6,414.8z M-174.6,397.4
	l12.1-4.1l-14.7,11.7L-174.6,397.4z M-171.3,387.5l1.3-3.7l7.8,6.9L-171.3,387.5z M-172.2,387.1l-5.2-1.8l3.8-4.8l2.8,2.5
	L-172.2,387.1z M-173,379.7l5.8-7.3l-3.2,9.5L-173,379.7z M-184.5,369.6l-14.5-12.8l30.6,12.6L-184.5,369.6z M-221.6,370.1l-24,4.4
	l40.7-17.2L-221.6,370.1z M-228.6,395.4l-5.3,19.7l-14.8-37.6L-228.6,395.4z M-223.3,413.7l-0.8,26.5l-9-23.2L-223.3,413.7z
	 M-197.8,422.7l9.9,8.8l-33.5,10L-197.8,422.7z M-177.8,406.8l15.6-12.4l-22.9,34L-177.8,406.8z M-169.7,382.7l3.8-11.1l5,18.8
	L-169.7,382.7z"/>
</svg>
