<?xml version="1.0" encoding="utf-8"?>
<!-- Generator: Adobe Illustrator 19.0.0, SVG Export Plug-In . SVG Version: 6.00 Build 0)  -->
<svg version="1.1" id="Слой_1" xmlns="http://www.w3.org/2000/svg" xmlns:xlink="http://www.w3.org/1999/xlink" x="0px" y="0px"
	 viewBox="-255 334 100 125" style="enable-background:new -255 334 100 125;" xml:space="preserve">
<path d="M-204.7,354.6c-23.9-0.2-43.6,19.2-43.7,43.1c-0.2,23.9,19.2,43.6,43.1,43.7c23.9,0.2,43.6-19.2,43.7-43.1
	C-161.4,374.4-180.8,354.7-204.7,354.6z M-176,416.5l-5.3,0.3c-0.3-2.1-2.1-3.7-4.2-3.7c-2.4,0-4.3,1.9-4.3,4.3c0,0.7,0.2,1.4,0.5,2
	l-5.2,2.6l0.1,0.2c-0.5-0.7-1.2-1.2-2.1-1.2c-0.7,0-1.3,0.2-1.7,0.6l0.1-0.2l-11-10.2c1-0.7,1.7-1.9,1.7-3.2c0-0.8-0.2-1.5-0.6-2.1
	l6.5-5.3c-0.5,1-0.7,2.1-0.7,3.2c0,4.3,3.4,7.8,7.8,7.9c3.4,0,6.4-2.2,7.4-5.3l7.3-5.2c0,0.1,0,0.2,0,0.4c0,2.1,1.6,3.7,3.7,3.8
	c0.5,0,0.9-0.1,1.3-0.2l0.7,9.4C-175.1,414.8-175.9,415.5-176,416.5z M-189.3,417.4c0-2,1.7-3.7,3.7-3.7c2,0,3.7,1.7,3.7,3.7
	c0,2-1.7,3.7-3.7,3.7C-187.6,421.1-189.3,419.4-189.3,417.4z M-218.8,428.4c-4,0-7.2-3.3-7.1-7.2c0-4,3.3-7.2,7.2-7.1
	c4,0,7.2,3.3,7.1,7.2C-211.5,425.2-214.8,428.4-218.8,428.4z M-226.5,422l-6.2-3.1c0.9-0.5,1.6-1.4,1.6-2.6c0-0.7-0.2-1.3-0.6-1.8
	l4.6-4c0.3,0.2,0.6,0.4,1,0.4c0.2,0,0.4,0,0.6-0.1l2.4,4.1c-2,1.4-3.3,3.7-3.4,6.4C-226.5,421.4-226.5,421.7-226.5,422z
	 M-231.7,416.3c0,1.3-1,2.3-2.3,2.3c-1.3,0-2.3-1-2.3-2.3c0-1.3,1-2.3,2.3-2.3C-232.7,414-231.7,415-231.7,416.3z M-221,396.9
	c0,3.9-3.2,7-7.1,7c-3.9,0-7-3.2-7-7.1c0-3.9,3.2-7,7.1-7S-220.9,393-221,396.9z M-220.3,396.9c0-1.7-0.6-3.3-1.5-4.6l8.2-6.4
	l-0.1-0.2c0.5,0.5,1.2,0.9,1.9,0.9c1.4,0,2.6-1.2,2.6-2.6c0-1.4-1.2-2.6-2.6-2.6c-1.4,0-2.6,1.2-2.6,2.6c0,0.6,0.2,1.2,0.5,1.6
	l-8.2,6.4c-1-1.3-2.5-2.2-4.1-2.6l1.7-9.1c0.2,0,0.4,0,0.5,0c2.8,0,5.1-2.2,5.1-5c0-0.5-0.1-0.9-0.2-1.3l2.1-0.7
	c0.5,0.9,1.5,1.5,2.6,1.5c0.9,0,1.6-0.4,2.2-1l4.4,2.8c0,0.1-0.1,0.2-0.1,0.4c0,0.6,0.5,1.1,1.1,1.1c0.6,0,1.1-0.5,1.1-1.1
	c0-0.6-0.5-1.1-1.1-1.1c-0.3,0-0.6,0.1-0.8,0.3l-4.4-2.7c0.3-0.5,0.5-1,0.5-1.6c0-0.2,0-0.3,0-0.5l16-15.2c4.1,0.9,8.1,2.5,11.7,4.6
	l6.6,18.2c-0.3,0-0.6-0.1-0.9-0.1c-2.1,0-3.9,0.9-5.2,2.3l-5.2-4.6c0.3-0.5,0.5-1,0.5-1.6c0-1.7-1.3-3-3-3c-1.7,0-3,1.3-3,3
	c0,1.7,1.3,3,3,3c0.9,0,1.7-0.4,2.3-1l5.1,4.6c-1,1.2-1.6,2.7-1.6,4.4c0,2.1,0.9,3.9,2.3,5.2l-6,7.4c-1.4-1.4-3.4-2.3-5.5-2.4
	c-2.8,0-5.2,1.4-6.6,3.6l-7.3,5.9c-0.7-1-1.9-1.6-3.2-1.6c-0.1,0-0.2,0-0.3,0l-1.1-4.5c1-0.3,1.7-1.1,1.7-2.2c0-1-0.6-1.9-1.6-2.2
	l2.1-2.9c0.1,0,0.1,0,0.2,0c0.6,0,1-0.4,1.1-1l3.8-0.4c0.5,1,1.5,1.7,2.6,1.7c1.6,0,2.9-1.3,2.9-2.9c0-0.7-0.2-1.3-0.6-1.8l3.8-3.2
	c0.3,0.3,0.7,0.4,1.1,0.4c0.8,0,1.5-0.6,1.6-1.3l2.5,0.8c0,0.1,0,0.1,0,0.2c0,0.7,0.6,1.3,1.3,1.3c0.7,0,1.3-0.6,1.3-1.3
	c0-0.7-0.6-1.3-1.3-1.3c-0.5,0-1,0.3-1.2,0.7l-2.6-0.9c-0.1-0.9-0.8-1.5-1.6-1.6c-0.9,0-1.7,0.7-1.7,1.6c0,0.3,0.1,0.7,0.3,0.9
	l-3.8,3.2c-0.5-0.5-1.2-0.8-2-0.8c-1.6,0-2.9,1.3-2.9,2.9c0,0.3,0,0.5,0.1,0.8l-3.7,0.3c-0.1-0.4-0.5-0.8-1-0.8
	c-0.6,0-1.1,0.5-1.1,1.1c0,0.1,0,0.1,0,0.2l-2.9,0c-0.1-0.4-0.4-0.7-0.9-0.7c-0.5,0-0.9,0.4-0.9,0.9s0.4,0.9,0.9,0.9
	c0.4,0,0.8-0.3,0.9-0.7l3.1,0c0.1,0.1,0.2,0.2,0.3,0.3l-2.2,3c-0.1,0-0.2,0-0.3,0c-1.3,0-2.3,1-2.3,2.3c0,1.3,1,2.3,2.3,2.3
	c0.1,0,0.1,0,0.2,0l1,4.5c-1.9,0.3-3.4,2-3.4,4c0,0.2,0,0.4,0.1,0.6l-9,0.4c-0.1-0.7-0.7-1.3-1.5-1.3l-0.3-3.4
	C-223,403.6-220.4,400.6-220.3,396.9z M-223.9,370.8c2.4,0,4.4,2,4.4,4.5c0,2.4-2,4.4-4.5,4.4c-2.4,0-4.4-2-4.4-4.5
	C-228.4,372.8-226.4,370.8-223.9,370.8z M-214.4,374.2c-1.3,0-2.3-1.1-2.3-2.3c0-1.3,1.1-2.3,2.3-2.3c1.3,0,2.3,1.1,2.3,2.3
	C-212.1,373.2-213.1,374.2-214.4,374.2z M-179.8,400.8l-7.2,5.1c0.1-0.6,0.2-1.2,0.2-1.8c0-2-0.7-3.8-1.9-5.2l6.1-7.4
	c1.2,1,2.7,1.6,4.4,1.6c0.7,0,1.3-0.1,2-0.3l1,5.4c-0.3-0.1-0.6-0.1-0.9-0.1C-177.9,398-179.3,399.2-179.8,400.8z M-187.3,404.1
	c0,4-3.3,7.2-7.2,7.1c-4,0-7.2-3.3-7.1-7.2c0-4,3.3-7.2,7.2-7.1C-190.5,396.9-187.3,400.1-187.3,404.1z M-178.2,392.4
	c-3.5,0-6.4-2.9-6.4-6.5c0-3.5,2.9-6.4,6.5-6.4c3.5,0,6.4,2.9,6.4,6.5C-171.8,389.6-174.7,392.4-178.2,392.4z M-191,377.4
	c-1.3,0-2.4-1.1-2.4-2.4c0-1.3,1.1-2.4,2.4-2.4c1.3,0,2.4,1.1,2.4,2.4C-188.6,376.3-189.7,377.4-191,377.4z M-211.8,397.3
	c0,0.9-0.8,1.7-1.7,1.7c-0.9,0-1.7-0.8-1.7-1.7c0-0.9,0.8-1.7,1.7-1.7C-212.5,395.6-211.8,396.3-211.8,397.3z M-200.6,389.7
	c0,1.3-1,2.3-2.3,2.3c-1.3,0-2.3-1-2.3-2.3c0-1.3,1-2.3,2.3-2.3C-201.6,387.4-200.6,388.5-200.6,389.7z M-196.7,383.5
	c0-0.6,0.5-1,1-1c0.6,0,1,0.5,1,1c0,0.6-0.5,1-1,1S-196.7,384.1-196.7,383.5z M-218.6,413.4c-1.5,0-3,0.4-4.2,1.2l-2.3-4
	c0.3-0.3,0.6-0.6,0.6-1.1l9.1-0.4c0.3,1.1,1,2,2,2.5l-1.2,2.9C-215.9,413.8-217.2,413.4-218.6,413.4z M-215,408
	c0-1.9,1.6-3.4,3.4-3.4s3.4,1.6,3.4,3.4c0,1.9-1.6,3.4-3.4,3.4C-213.5,411.4-215,409.9-215,408z M-173.9,415.3
	c0.8,0,1.4,0.7,1.4,1.5c0,0.8-0.7,1.4-1.5,1.4c-0.8,0-1.4-0.7-1.4-1.5C-175.4,415.9-174.7,415.3-173.9,415.3z M-171.9,416.7
	c0-1.1-0.8-2-1.9-2.1l-0.8-9.5l-0.2,0c1.3-0.6,2.3-1.9,2.3-3.4c0-1-0.4-1.8-0.9-2.5l10.8-7c0.3,2,0.4,4,0.4,6
	c-0.1,8.3-2.5,16-6.6,22.5l-3.9-2.5C-172.2,418-171.9,417.4-171.9,416.7z M-162.6,391.8l-11,7.1c-0.4-0.3-0.8-0.6-1.3-0.8l0.2,0
	l-1.1-5.5c2.7-1,4.7-3.5,4.7-6.6c0-3.4-2.4-6.3-5.6-6.9l-6.5-18C-172.3,367.6-164.5,378.8-162.6,391.8z M-195.9,356.2l-15.6,14.8
	c-0.4-1.2-1.5-2-2.8-2c-1.6,0-2.9,1.3-3,2.9c0,0.4,0.1,0.7,0.2,1l-2.1,0.7c-0.3-0.9-0.9-1.7-1.6-2.2l3.4-4.5
	c0.1,0.1,0.3,0.1,0.5,0.1c0.6,0,1.1-0.5,1.1-1.1c0-0.1,0-0.1,0-0.2l3.2-1.3c0.1,0.1,0.2,0.1,0.4,0.2c0.3,0,0.5-0.2,0.5-0.5
	c0-0.3-0.2-0.5-0.5-0.5c-0.3,0-0.5,0.2-0.5,0.5l-3.2,1.3c-0.2-0.3-0.5-0.5-0.9-0.5c-0.6,0-1.1,0.5-1.1,1.1c0,0.3,0.1,0.5,0.3,0.7
	l-3.4,4.5c-0.8-0.6-1.8-0.9-2.8-0.9c-0.7,0-1.3,0.1-1.9,0.4l-6.1-5.8c7.5-6.1,17-9.7,27.3-9.6C-201.7,355.2-198.8,355.6-195.9,356.2
	z M-232.3,365.1l6.1,5.7c-1.6,0.8-2.7,2.5-2.7,4.5c0,2.5,1.7,4.5,4.1,5l-1.7,9.1c-0.4-0.1-0.8-0.1-1.3-0.1c-3.5,0-6.5,2.4-7.4,5.6
	l-11.3-6.7C-244.5,378.9-239.3,370.9-232.3,365.1z M-247.8,397.7c0-3.1,0.4-6.2,1.1-9.2l11.3,6.7c-0.1,0.5-0.2,1-0.2,1.5
	c0,4.2,3.4,7.7,7.6,7.7c0.4,0,0.8,0,1.2-0.1l0.3,3.4c-0.7,0.2-1.2,0.8-1.2,1.5c0,0.3,0.1,0.6,0.3,0.9l-4.6,4c-0.5-0.5-1.2-0.8-2-0.8
	c-1.6,0-2.9,1.3-2.9,2.9c0,1.6,1.3,2.9,2.9,2.9c0.3,0,0.5,0,0.8-0.1l6.8,3.4l0,0c0.6,3.7,3.8,6.6,7.7,6.6c1,0,2-0.2,2.8-0.5l4,11.7
	C-232.4,436.9-247.9,419-247.8,397.7z M-211.5,440.3l-4.1-12c2.7-1.2,4.6-3.9,4.6-7.1c0-2.7-1.4-5.1-3.5-6.5l1.2-3
	c0.5,0.2,1,0.3,1.5,0.3c0.8,0,1.5-0.2,2.1-0.6l-0.1,0.1l11.1,10.2c-0.5,0.5-0.7,1.1-0.7,1.8c0,1.4,1.1,2.6,2.6,2.6
	c1.4,0,2.6-1.1,2.6-2.6c0-0.5-0.1-0.9-0.3-1.3l5.2-2.6c0.8,1.2,2.1,2,3.6,2c0.4,0,0.8-0.1,1.2-0.2l-5.5,16.5
	c-4.8,1.8-10,2.8-15.5,2.8C-207.4,440.8-209.5,440.6-211.5,440.3z M-189.3,437.8l5.4-16.4l-0.1,0c1.6-0.6,2.8-2.2,2.8-4
	c0-0.1,0-0.1,0-0.2l5.3-0.3c0.1,1,1,1.8,2,1.9c0.3,0,0.6-0.1,0.9-0.2l4,2.6C-173.9,428.7-181,434.5-189.3,437.8z"/>
</svg>
