<?xml version="1.0" encoding="utf-8"?>
<!-- Generator: Adobe Illustrator 19.0.0, SVG Export Plug-In . SVG Version: 6.00 Build 0)  -->
<svg version="1.1" id="Слой_1" xmlns="http://www.w3.org/2000/svg" xmlns:xlink="http://www.w3.org/1999/xlink" x="0px" y="0px"
	 viewBox="-255 334 100 125" style="enable-background:new -255 334 100 125;" xml:space="preserve">
<g>
	<path d="M-209.2,354.4l8.2,4.9l0.4,0.2l0.4-0.1l9.1-2.8l5.5,7.8l0.3,0.4l0.4,0.1l9.4,1.2l1.8,9.3l0.1,0.4l0.4,0.2l8.1,4.9l-2.1,9.3
		l-0.1,0.4l0.3,0.4l5.4,7.8l-5.7,7.6l-0.3,0.4l0.1,0.4l1.8,9.3l-8.3,4.8l-0.4,0.2l-0.1,0.4l-2.2,9.3l-9.5,0.8h-0.4l-0.3,0.4
		l-5.7,7.6l-9-3.1l-0.4-0.1l-0.4,0.2l-8.3,4.6l-7-6.5l-0.3-0.3h-0.4l-9.6,0.8l-3.7-8.8l-0.2-0.4l-0.4-0.1l-9-3.1l0.1-9.5v-0.4
		l-0.3-0.3l-6.9-6.5l4-8.6l0.2-0.4l-0.2-0.5l-3.7-8.8l7.2-6.3l0.3-0.3v-0.4l0.2-9.5l9.1-2.8l0.4-0.1l0.2-0.4l4.1-8.6l9.4,1.1
		l0.4,0.1l0.3-0.3L-209.2,354.4 M-224.4,422.4l0.7-0.7l42.4-42.4l0.7-0.7l-0.7-0.7l-3.5-3.5l-0.7-0.7l-0.7,0.7l-42.5,42.3l-0.7,0.7
		l0.7,0.7l3.5,3.5L-224.4,422.4 M-217.4,396.6c2.9,0,5.7-1.1,7.8-3.2c4.3-4.3,4.3-11.3,0-15.6c-2.1-2.1-4.8-3.2-7.8-3.2
		s-5.7,1.1-7.8,3.2c-2.1,2.1-3.2,4.8-3.2,7.8s1.1,5.7,3.2,7.8C-223.1,395.5-220.3,396.6-217.4,396.6 M-192.6,421.4
		c2.9,0,5.7-1.1,7.8-3.2c4.3-4.3,4.3-11.3,0-15.6c-2.1-2.1-4.8-3.2-7.8-3.2c-3,0-5.7,1.1-7.8,3.2c-4.3,4.3-4.3,11.3,0,15.6
		C-198.3,420.2-195.6,421.4-192.6,421.4 M-209.3,353.2l-7.8,6.7l-10.2-1.2l-4.4,9.3l-9.8,3l-0.2,10.2l-7.7,6.7l4,9.4l-4.3,9.3l7.5,7
		l-0.2,10.2l9.7,3.4l4,9.4l10.2-0.9l7.5,7l9-4.9l9.7,3.3l6.2-8.2l10.2-0.9l2.3-10l8.9-5l-1.9-10.1l6.1-8.2l-5.8-8.4l2.3-10l-8.8-5.3
		l-2-10l-10.2-1.3l-5.9-8.4l-9.8,3L-209.3,353.2L-209.3,353.2z M-224.4,421l-3.6-3.6l42.4-42.4l3.5,3.5L-224.4,421L-224.4,421z
		 M-217.4,395.6c-2.6,0-5.1-1-7.1-2.9c-3.9-3.9-3.9-10.2,0-14.1c2-2,4.5-2.9,7.1-2.9c2.6,0,5.1,1,7.1,2.9c3.9,3.9,3.9,10.2,0,14.1
		C-212.3,394.6-214.8,395.6-217.4,395.6L-217.4,395.6z M-192.6,420.4c-2.6,0-5.1-1-7.1-2.9c-3.9-3.9-3.9-10.2,0-14.1
		c2-2,4.5-2.9,7.1-2.9c2.6,0,5.1,1,7.1,2.9c3.9,3.9,3.9,10.2,0,14.1C-187.5,419.4-190.1,420.4-192.6,420.4L-192.6,420.4z"/>
</g>
</svg>
