<?xml version="1.0" encoding="iso-8859-1"?>
<!-- Generator: Adobe Illustrator 19.0.0, SVG Export Plug-In . SVG Version: 6.00 Build 0)  -->
<svg version="1.1" id="Capa_1" xmlns="http://www.w3.org/2000/svg" xmlns:xlink="http://www.w3.org/1999/xlink" x="0px" y="0px"
	 viewBox="0 0 512.002 512.002" style="enable-background:new 0 0 512.002 512.002;" xml:space="preserve">
<polygon style="fill:#3B4145;" points="298.427,256 504.5,49.927 483.287,28.714 236.001,256 483.287,483.286 504.5,462.074 "/>
<polygon style="fill:#525A61;" points="483.287,28.714 462.073,7.5 256,213.574 49.927,7.5 7.5,49.927 213.574,256 7.5,462.074 
	49.927,504.5 256,298.427 462.074,504.5 483.287,483.286 256.001,256 "/>
<path d="M309.033,256L509.804,55.23c2.929-2.93,2.929-7.678,0-10.607L467.377,2.197c-2.931-2.93-7.679-2.928-10.607,0L256,202.967
	L55.23,2.197c-2.929-2.928-7.678-2.928-10.606,0L2.197,44.623c-2.929,2.93-2.929,7.678,0,10.607L202.967,256L2.197,456.77
	c-2.929,2.93-2.929,7.678,0,10.607l42.427,42.427c2.929,2.928,7.678,2.928,10.606,0l31.82-31.819c2.929-2.93,2.929-7.678,0-10.607
	c-2.928-2.928-7.677-2.928-10.606,0l-26.517,26.517l-31.82-31.82l200.77-200.77c2.929-2.93,2.929-7.678,0-10.607L18.107,49.927
	l31.82-31.82l200.77,200.771c2.928,2.928,7.676,2.928,10.607,0l200.77-200.771l31.82,31.82l-200.771,200.77
	c-2.929,2.93-2.929,7.678,0,10.607l200.771,200.77l-31.82,31.82l-200.77-200.771c-1.407-1.406-3.314-2.196-5.304-2.196
	s-3.897,0.79-5.303,2.196L97.962,445.859c-2.929,2.93-2.929,7.678,0,10.607c2.929,2.928,7.678,2.928,10.606,0L256,309.034
	l200.77,200.771c1.465,1.464,3.384,2.196,5.304,2.196c1.919,0,3.839-0.732,5.304-2.196l42.427-42.427
	c2.929-2.93,2.929-7.678,0-10.607L309.033,256z"/>
<g>
</g>
<g>
</g>
<g>
</g>
<g>
</g>
<g>
</g>
<g>
</g>
<g>
</g>
<g>
</g>
<g>
</g>
<g>
</g>
<g>
</g>
<g>
</g>
<g>
</g>
<g>
</g>
<g>
</g>
</svg>
