<svg xmlns="http://www.w3.org/2000/svg" x="0px" y="0px" viewBox="0 0 512.035 512.035" fill="#eb7d93"><path d="M506.817,248.355L11.883,0.888C8.47-0.819,5.057,0.035,2.497,2.595c-2.56,3.413-3.413,7.68-0.853,10.24l158.72,243.2l-158.72,243.2c-1.707,3.413-1.707,7.68,0.853,10.24c0.853,1.707,3.413,2.56,5.973,2.56c1.707,0,2.56,0,3.413-0.853l494.933-247.467c3.413-1.707,5.12-4.267,5.12-7.68S509.377,250.061,506.817,248.355z M33.217,482.168l145.067-221.013c1.707-2.56,1.707-6.827,0-9.387L33.217,30.755l451.413,225.28L33.217,482.168z"/></svg>