<?xml version="1.0" encoding="iso-8859-1"?>
<!-- Generator: Adobe Illustrator 19.0.0, SVG Export Plug-In . SVG Version: 6.00 Build 0)  -->
<svg version="1.1" id="Layer_1" xmlns="http://www.w3.org/2000/svg" xmlns:xlink="http://www.w3.org/1999/xlink" x="0px" y="0px"
	 viewBox="0 0 512 512" style="enable-background:new 0 0 512 512;" xml:space="preserve">
<path style="fill:#EA86A5;" d="M369.442,80.314c4.469,12.583,7.029,26.061,7.029,40.157c0,16.608-13.51,30.118-30.118,30.118
	s-30.118-13.51-30.118-30.118s13.51-30.118,30.118-30.118c1.914,0,3.773,0.223,5.588,0.565c-1.121-3.634-2.477-7.158-3.988-10.604
	H164.048c-1.511,3.446-2.867,6.97-3.988,10.604c1.815-0.342,3.674-0.565,5.588-0.565c16.608,0,30.118,13.51,30.118,30.118
	s-13.51,30.118-30.118,30.118s-30.118-13.51-30.118-30.118c0-14.096,2.56-27.573,7.029-40.157h-66.21L55.73,491.922h400.539
	L435.652,80.314H369.442z M326.275,311.216H185.725c-5.544,0-10.039-4.495-10.039-10.039s4.495-10.039,10.039-10.039h140.549
	c5.544,0,10.039,4.495,10.039,10.039S331.818,311.216,326.275,311.216z"/>
<g>
	<path style="fill:#314E55;" d="M455.225,69.775c-0.265-5.343-4.677-9.539-10.025-9.539H360.17C339.3,24.289,300.473,0,256,0
		s-83.3,24.289-104.17,60.235H66.799c-5.348,0-9.76,4.196-10.024,9.539L35.152,501.461c-0.137,2.745,0.853,5.426,2.75,7.417
		c1.897,1.995,4.524,3.122,7.274,3.122h421.647c2.75,0,5.377-1.127,7.274-3.122c1.897-1.99,2.887-4.672,2.75-7.417L455.225,69.775z
		 M256,20.078c32.744,0,61.786,15.827,80.123,40.157H175.877C194.214,35.906,223.255,20.078,256,20.078z M55.73,491.922
		L76.348,80.314h66.21c-4.469,12.583-7.029,26.061-7.029,40.157c0,16.608,13.51,30.118,30.118,30.118s30.118-13.51,30.118-30.118
		s-13.51-30.118-30.118-30.118c-1.914,0-3.773,0.223-5.588,0.565c1.121-3.634,2.477-7.158,3.988-10.604h183.904
		c1.511,3.446,2.867,6.97,3.988,10.604c-1.815-0.342-3.674-0.565-5.587-0.565c-16.608,0-30.118,13.51-30.118,30.118
		s13.51,30.118,30.118,30.118c16.608,0,30.118-13.51,30.118-30.118c0-14.096-2.56-27.573-7.029-40.157h66.21l20.618,411.608H55.73z
		 M165.647,110.431c5.534,0,10.039,4.505,10.039,10.039c0,5.534-4.505,10.039-10.039,10.039c-5.534,0-10.039-4.505-10.039-10.039
		C155.608,114.936,160.113,110.431,165.647,110.431z M356.392,120.471c0,5.534-4.505,10.039-10.039,10.039
		c-5.534,0-10.039-4.505-10.039-10.039c0-5.534,4.505-10.039,10.039-10.039C351.887,110.431,356.392,114.936,356.392,120.471z"/>
	<path style="fill:#314E55;" d="M326.275,291.137H185.725c-5.544,0-10.039,4.495-10.039,10.039s4.495,10.039,10.039,10.039h140.549
		c5.544,0,10.039-4.495,10.039-10.039S331.818,291.137,326.275,291.137z"/>
</g>
<g>
</g>
<g>
</g>
<g>
</g>
<g>
</g>
<g>
</g>
<g>
</g>
<g>
</g>
<g>
</g>
<g>
</g>
<g>
</g>
<g>
</g>
<g>
</g>
<g>
</g>
<g>
</g>
<g>
</g>
</svg>
