<svg xmlns="http://www.w3.org/2000/svg" x="0px" y="0px" viewBox="0 0 512 512"><path style="fill:#D26CBA;" d="M329.767,370.318c-31.494,23.283-79.661,19.689-107.368-8.027l-69.859-69.859c-27.711-27.706-31.31-75.879-8.027-107.378l12.266-16.59l-61.149-61.138l-44.722,40.24c-31.257,28.137-35.334,77.718-9.083,110.52c0.352,0.441,0.667,0.903,0.946,1.387c0.51,0.851,15.014,24.313,101.642,110.94c86.612,86.606,109.989,101.043,110.94,101.61c0.452,0.273,0.977,0.63,1.382,0.967c32.481,26.613,82.062,22.547,110.525-9.067l40.246-44.727l-61.149-61.138L329.767,370.318z"/><path style="fill:#314E55;" d="M355.02,336.286c-3.767-3.761-9.719-4.224-14-1.051l-24.045,17.777c-23.267,17.22-58.879,14.531-79.362-5.936l-69.859-69.859c-20.483-20.488-23.146-56.095-5.936-79.367l17.772-24.039c3.168-4.287,2.721-10.244-1.045-14.005l-74.917-74.913c-4.05-4.045-10.564-4.234-14.804-0.389l-52.307,47.07c-39.405,35.47-44.69,97.848-11.93,139.402c3.32,5.296,21.97,32.003,104.615,114.649c82.299,82.299,109.059,101.074,114.491,104.489c18.234,14.709,40.603,21.896,62.993,21.885c28.263,0,56.557-11.452,76.567-33.684l47.075-52.313c3.83-4.255,3.656-10.759-0.389-14.804L355.02,336.286z M367.26,463.922c-28.462,31.615-78.043,35.681-110.525,9.067c-0.405-0.336-0.93-0.693-1.382-0.967c-0.951-0.567-24.328-15.003-110.94-101.61C57.787,283.785,43.282,260.324,42.772,259.473c-0.278-0.483-0.594-0.946-0.946-1.387c-26.251-32.802-22.174-82.383,9.083-110.519l44.722-40.24l61.149,61.138l-12.266,16.59c-23.283,31.499-19.684,79.672,8.027,107.378l69.859,69.859c27.706,27.717,75.874,31.31,107.368,8.027l16.59-12.261l61.149,61.138L367.26,463.922z"/><path style="fill:#314E55;" d="M290.567,67.705c-5.942,0-10.759,4.812-10.759,10.759c0,5.947,4.817,10.759,10.759,10.759c34.483,0,66.906,13.428,91.292,37.813c24.386,24.386,37.813,56.799,37.813,91.292c0,5.947,4.817,10.759,10.759,10.759s10.759-4.812,10.759-10.759c0-40.24-15.665-78.064-44.117-106.506C368.626,83.37,330.802,67.705,290.567,67.705z"/><path style="fill:#314E55;" d="M442.719,66.171C400.036,23.503,343.3,0,282.96,0c-5.942,0-10.759,4.812-10.759,10.759s4.817,10.759,10.759,10.759c54.593,0,105.928,21.265,144.545,59.867c38.607,38.612,59.872,89.947,59.872,144.551c0,5.947,4.817,10.759,10.759,10.759c5.942,0,10.759-4.812,10.759-10.759C508.895,165.585,485.392,108.849,442.719,66.171z"/><path style="fill:#314E55;" d="M336.213,172.677c14.226,14.226,22.059,33.138,22.059,53.258c0,5.947,4.817,10.759,10.759,10.759s10.759-4.812,10.759-10.759c0-25.867-10.071-50.18-28.363-68.472c-18.292-18.292-42.605-28.358-68.467-28.358c-5.942,0-10.759,4.812-10.759,10.759c0,5.947,4.817,10.759,10.759,10.759C303.075,150.623,321.987,158.462,336.213,172.677z"/></svg>