<?xml version="1.0" encoding="iso-8859-1"?>
<svg version="1.1" xmlns="http://www.w3.org/2000/svg" xmlns:xlink="http://www.w3.org/1999/xlink" x="0px" y="0px"
	 viewBox="0 0 416.754 416.754" xml:space="preserve">
<path fill="#FFFFFF" d="M350.366,202.447c-2.627,12.065-6.553,23.941-11.666,35.297c-2.04,4.532-7.366,6.552-11.901,4.511
	c-0.021-0.01-0.044-0.02-0.065-0.03c-3.163,8.113-6.951,15.926-11.314,23.363c10.156,10.25,14.536,23.035,12.22,36.739
	c-3.33,19.7-20.053,36.878-38.898,39.958c-0.491,0.08-0.979,0.119-1.462,0.119c-4.332,0-8.15-3.135-8.871-7.55
	c-0.802-4.906,2.525-9.532,7.431-10.333c11.225-1.834,22.015-13.136,24.053-25.193c1.127-6.667-0.506-12.837-4.766-18.301
	c-12.289,16.305-27.629,30.153-45.329,40.47c-19.861,11.575-35.715,16.748-51.405,16.774c-15.72-0.026-31.573-5.199-51.434-16.774
	c-30.492-17.773-53.972-46.011-66.938-79.271c-0.021,0.01-0.043,0.02-0.064,0.03c-4.529,2.04-9.86,0.021-11.901-4.511
	c-5.116-11.362-9.042-23.238-11.668-35.297c-1.058-4.857,2.022-9.651,6.879-10.709c3.339-0.726,6.65,0.502,8.737,2.921
	c1.419-1.648,3.436-2.79,5.766-3.065c4.938-0.585,9.41,2.949,9.992,7.884c5.286,44.834,30.805,84.635,68.262,106.468
	c16.964,9.887,30.031,14.305,42.369,14.325c12.309-0.02,25.376-4.438,42.342-14.325c15.725-9.166,29.346-21.499,40.249-36.04
	c-14.201-8.009-23.378-21.05-25.233-35.916c-1.837-14.717,3.789-29.322,15.438-40.071c3.653-3.371,9.347-3.142,12.718,0.51
	s3.143,9.347-0.511,12.718c-7.434,6.86-10.908,15.602-9.783,24.614c1.164,9.326,7.289,17.634,16.805,22.794
	c0.154,0.084,0.307,0.167,0.46,0.251c9.509-16.72,15.785-35.532,18.118-55.327c0.583-4.937,5.062-8.464,9.992-7.884
	c2.33,0.275,4.347,1.416,5.766,3.065c2.087-2.419,5.396-3.647,8.737-2.921C348.344,192.796,351.424,197.59,350.366,202.447z
	 M324.191,392.926c-27.633-6.553-60.572-19.22-60.572-42.351c0-4.971-4.029-9-9-9s-9,4.029-9,9
	c0,28.013,25.038,48.154,74.418,59.865c0.698,0.166,1.396,0.245,2.085,0.245c4.075,0,7.768-2.787,8.749-6.925
	C332.019,398.923,329.027,394.073,324.191,392.926z M160.918,341.574c-4.971,0-9,4.029-9,9c0,23.131-32.939,35.798-60.573,42.351
	c-4.836,1.147-7.827,5.997-6.68,10.834c0.981,4.138,4.674,6.925,8.749,6.925c0.688,0,1.387-0.079,2.085-0.245
	c49.381-11.71,74.419-31.852,74.419-59.865C169.918,345.604,165.889,341.574,160.918,341.574z M416.754,121.875
	c0,18.258-21.947,32.956-65.23,43.687c-38.346,9.506-89.183,14.742-143.147,14.742c-53.964,0-104.801-5.235-143.146-14.742
	C21.946,154.832,0,140.133,0,121.875C-0.003,96.38,43.485,82.078,82.379,74.389l5.703-24.521
	c5.612-24.15,29.911-43.799,54.165-43.799h132.26c24.254,0,48.553,19.648,54.166,43.8l5.701,24.52
	C373.267,82.077,416.754,96.379,416.754,121.875z M100.752,105.172c0.154,0.214,0.314,0.424,0.479,0.632
	c3.622,4.56,9.369,7.072,16.183,7.072h181.928c6.813,0,12.561-2.511,16.182-7.072c2.692-3.39,4.075-7.684,4.072-12.457
	c0-1.113-0.076-2.253-0.229-3.413c-32.707-5.56-70.922-8.489-110.99-8.489c-25.191,0-49.729,1.163-72.931,3.457
	c-4.952,0.493-9.354-3.125-9.842-8.071c-0.489-4.946,3.124-9.353,8.07-9.842c23.788-2.352,48.922-3.545,74.702-3.545
	c38.137,0,74.717,2.603,106.732,7.562l-3.968-17.063c-3.765-16.195-20.54-29.876-36.634-29.876h-132.26
	c-16.094,0-32.869,13.681-36.633,29.875l-7.706,33.134c-0.009,0.042-0.019,0.083-0.028,0.125
	C96.308,94.099,97.327,100.439,100.752,105.172z M398.754,121.875c0-2.928-4.433-8.481-16.926-14.493
	c-10.875-5.234-26.018-9.997-44.254-13.949c-0.037,8.781-2.768,17.031-7.956,23.564c-7.106,8.949-17.859,13.878-30.277,13.878
	H117.413c-12.418,0-23.171-4.928-30.278-13.877c-5.188-6.533-7.918-14.782-7.954-23.564c-18.238,3.953-33.382,8.716-44.256,13.949
	C22.432,113.395,18,118.947,18,121.874c0,4.647,10.776,16.106,51.562,26.217c36.97,9.165,86.268,14.213,138.814,14.213
	s101.846-5.048,138.815-14.213C387.978,137.98,398.754,126.521,398.754,121.875z M188.929,274.969
	c-2.502,4.295-1.049,9.805,3.246,12.307c6.032,3.514,11.024,5.085,16.214,5.093c5.164-0.008,10.156-1.579,16.188-5.094
	c4.294-2.502,5.747-8.012,3.245-12.307c-2.502-4.294-8.013-5.748-12.308-3.245c-4.063,2.368-6.029,2.644-7.126,2.646
	c-1.123-0.002-3.088-0.278-7.153-2.646C196.941,269.221,191.431,270.675,188.929,274.969z M205.35,236.424h6.052
	c4.971,0,9-4.029,9-9s-4.029-9-9-9h-6.052c-4.971,0-9,4.029-9,9S200.379,236.424,205.35,236.424z"/>
</svg>
